HIERARCHY
ROOT Hips
{
    OFFSET 0.000000 0.000000 0.000000
    CHANNELS 6 Xposition Yposition Zposition Zrotation Xrotation Yrotation
    JOINT Spine
    {
        OFFSET -0.000000 7.305679 0.000000
        CHANNELS 3 Zrotation Xrotation Yrotation
        JOINT Spine1
        {
            OFFSET -0.000000 20.356625 0.000000
            CHANNELS 3 Zrotation Xrotation Yrotation
            JOINT Neck
            {
                OFFSET -0.000000 22.138498 0.000000
                CHANNELS 3 Zrotation Xrotation Yrotation
                JOINT Head
                {
                    OFFSET -0.000000 13.809516 1.781873
                    CHANNELS 3 Zrotation Xrotation Yrotation
                    End Site
                    {
                        OFFSET -0.000000 17.818729 0.000000
                    }
                }
            }
            JOINT LeftShoulder
            {
                OFFSET 3.599131 17.989975 0.023592
                CHANNELS 3 Zrotation Xrotation Yrotation
                JOINT LeftArm
                {
                    OFFSET 12.560995 0.000000 0.000000
                    CHANNELS 3 Zrotation Xrotation Yrotation
                    JOINT LeftForeArm
                    {
                        OFFSET 22.903347 0.000000 0.000000
                        CHANNELS 3 Zrotation Xrotation Yrotation
                        JOINT LeftHand
                        {
                            OFFSET 21.865294 0.000000 0.000000
                            CHANNELS 3 Zrotation Xrotation Yrotation
                            JOINT LeftHandThumb1
                            {
                                OFFSET 1.853706 -2.106484 2.949078
                                CHANNELS 3 Zrotation Xrotation Yrotation
                                JOINT LeftHandThumb2
                                {
                                    OFFSET 2.049154 0.000000 1.336405
                                    CHANNELS 3 Zrotation Xrotation Yrotation
                                    JOINT LeftHandThumb3
                                    {
                                        OFFSET 2.672809 0.000000 0.000000
                                        CHANNELS 3 Zrotation Xrotation Yrotation
                                        End Site
                                        {
                                            OFFSET 2.381303 0.000000 0.000000
                                        }
                                    }
                                }
                            }
                            JOINT LeftHandIndex1
                            {
                                OFFSET 7.583345 0.000000 2.949078
                                CHANNELS 3 Zrotation Xrotation Yrotation
                                JOINT LeftHandIndex2
                                {
                                    OFFSET 4.454682 0.000000 0.000000
                                    CHANNELS 3 Zrotation Xrotation Yrotation
                                    JOINT LeftHandIndex3
                                    {
                                        OFFSET 2.227341 0.000000 0.000000
                                        CHANNELS 3 Zrotation Xrotation Yrotation
                                        End Site
                                        {
                                            OFFSET 1.984419 0.000000 0.000000
                                        }
                                    }
                                }
                            }
                            JOINT LeftHandMiddle1
                            {
                                OFFSET 7.583345 0.000000 0.977409
                                CHANNELS 3 Zrotation Xrotation Yrotation
                                JOINT LeftHandMiddle2
                                {
                                    OFFSET 4.900151 0.000000 0.000000
                                    CHANNELS 3 Zrotation Xrotation Yrotation
                                    JOINT LeftHandMiddle3
                                    {
                                        OFFSET 2.672809 0.000000 0.000000
                                        CHANNELS 3 Zrotation Xrotation Yrotation
                                        End Site
                                        {
                                            OFFSET 2.381303 0.000000 0.000000
                                        }
                                    }
                                }
                            }
                            JOINT LeftHandRing1
                            {
                                OFFSET 7.162047 0.000000 -0.977409
                                CHANNELS 3 Zrotation Xrotation Yrotation
                                JOINT LeftHandRing2
                                {
                                    OFFSET 4.454682 0.000000 0.000000
                                    CHANNELS 3 Zrotation Xrotation Yrotation
                                    JOINT LeftHandRing3
                                    {
                                        OFFSET 2.227341 0.000000 0.000000
                                        CHANNELS 3 Zrotation Xrotation Yrotation
                                        End Site
                                        {
                                            OFFSET 1.984419 0.000000 0.000000
                                        }
                                    }
                                }
                            }
                            JOINT LeftHandPinky1
                            {
                                OFFSET 6.740750 0.000000 -2.949078
                                CHANNELS 3 Zrotation Xrotation Yrotation
                                JOINT LeftHandPinky2
                                {
                                    OFFSET 3.563746 0.000000 0.000000
                                    CHANNELS 3 Zrotation Xrotation Yrotation
                                    JOINT LeftHandPinky3
                                    {
                                        OFFSET 1.781873 0.000000 0.000000
                                        CHANNELS 3 Zrotation Xrotation Yrotation
                                        End Site
                                        {
                                            OFFSET 1.587536 0.000000 0.000000
                                        }
                                    }
                                }
                            }
                        }
                    }
                }
            }
            JOINT RightShoulder
            {
                OFFSET -3.506995 17.989975 0.023592
                CHANNELS 3 Zrotation Xrotation Yrotation
                JOINT RightArm
                {
                    OFFSET -12.560995 0.000000 0.000000
                    CHANNELS 3 Zrotation Xrotation Yrotation
                    JOINT RightForeArm
                    {
                        OFFSET -22.903347 0.000000 0.000000
                        CHANNELS 3 Zrotation Xrotation Yrotation
                        JOINT RightHand
                        {
                            OFFSET -21.865294 0.000000 0.000000
                            CHANNELS 3 Zrotation Xrotation Yrotation
                            JOINT RightHandThumb1
                            {
                                OFFSET -1.853706 -2.106484 2.949078
                                CHANNELS 3 Zrotation Xrotation Yrotation
                                JOINT RightHandThumb2
                                {
                                    OFFSET -2.049154 0.000000 1.336405
                                    CHANNELS 3 Zrotation Xrotation Yrotation
                                    JOINT RightHandThumb3
                                    {
                                        OFFSET -2.672809 0.000000 0.000000
                                        CHANNELS 3 Zrotation Xrotation Yrotation
                                        End Site
                                        {
                                            OFFSET -2.381303 0.000000 0.000000
                                        }
                                    }
                                }
                            }
                            JOINT RightHandIndex1
                            {
                                OFFSET -7.583345 0.000000 2.949078
                                CHANNELS 3 Zrotation Xrotation Yrotation
                                JOINT RightHandIndex2
                                {
                                    OFFSET -4.454682 0.000000 0.000000
                                    CHANNELS 3 Zrotation Xrotation Yrotation
                                    JOINT RightHandIndex3
                                    {
                                        OFFSET -2.227341 0.000000 0.000000
                                        CHANNELS 3 Zrotation Xrotation Yrotation
                                        End Site
                                        {
                                            OFFSET -1.984419 0.000000 0.000000
                                        }
                                    }
                                }
                            }
                            JOINT RightHandMiddle1
                            {
                                OFFSET -7.583345 0.000000 0.977409
                                CHANNELS 3 Zrotation Xrotation Yrotation
                                JOINT RightHandMiddle2
                                {
                                    OFFSET -4.900151 0.000000 0.000000
                                    CHANNELS 3 Zrotation Xrotation Yrotation
                                    JOINT RightHandMiddle3
                                    {
                                        OFFSET -2.672809 0.000000 0.000000
                                        CHANNELS 3 Zrotation Xrotation Yrotation
                                        End Site
                                        {
                                            OFFSET -2.381303 0.000000 0.000000
                                        }
                                    }
                                }
                            }
                            JOINT RightHandRing1
                            {
                                OFFSET -7.162047 0.000000 -0.977409
                                CHANNELS 3 Zrotation Xrotation Yrotation
                                JOINT RightHandRing2
                                {
                                    OFFSET -4.454682 0.000000 0.000000
                                    CHANNELS 3 Zrotation Xrotation Yrotation
                                    JOINT RightHandRing3
                                    {
                                        OFFSET -2.227341 0.000000 0.000000
                                        CHANNELS 3 Zrotation Xrotation Yrotation
                                        End Site
                                        {
                                            OFFSET -1.984419 0.000000 0.000000
                                        }
                                    }
                                }
                            }
                            JOINT RightHandPinky1
                            {
                                OFFSET -6.740750 0.000000 -2.949078
                                CHANNELS 3 Zrotation Xrotation Yrotation
                                JOINT RightHandPinky2
                                {
                                    OFFSET -3.563746 0.000000 0.000000
                                    CHANNELS 3 Zrotation Xrotation Yrotation
                                    JOINT RightHandPinky3
                                    {
                                        OFFSET -1.781873 0.000000 0.000000
                                        CHANNELS 3 Zrotation Xrotation Yrotation
                                        End Site
                                        {
                                            OFFSET -1.587536 0.000000 0.000000
                                        }
                                    }
                                }
                            }
                        }
                    }
                }
            }
        }
    }
    JOINT LeftUpLeg
    {
        OFFSET 8.909365 0.000000 0.000000
        CHANNELS 3 Zrotation Xrotation Yrotation
        JOINT LeftLeg
        {
            OFFSET -0.000000 -38.765560 0.000000
            CHANNELS 3 Zrotation Xrotation Yrotation
            JOINT LeftFoot
            {
                OFFSET -0.000000 -35.244961 0.000000
                CHANNELS 3 Zrotation Xrotation Yrotation
                JOINT LeftToeBase
                {
                    OFFSET -0.000000 -5.791087 13.364048
                    CHANNELS 3 Zrotation Xrotation Yrotation
                    End Site
                    {
                        OFFSET -0.000000 0.000000 3.563746
                    }
                }
            }
        }
    }
    JOINT RightUpLeg
    {
        OFFSET -8.909365 0.000000 0.000000
        CHANNELS 3 Zrotation Xrotation Yrotation
        JOINT RightLeg
        {
            OFFSET -0.000000 -38.765560 0.000000
            CHANNELS 3 Zrotation Xrotation Yrotation
            JOINT RightFoot
            {
                OFFSET -0.000000 -35.244961 0.000000
                CHANNELS 3 Zrotation Xrotation Yrotation
                JOINT RightToeBase
                {
                    OFFSET -0.000000 -5.791087 13.364048
                    CHANNELS 3 Zrotation Xrotation Yrotation
                    End Site
                    {
                        OFFSET -0.000000 0.000000 3.563746
                    }
                }
            }
        }
    }
}
MOTION
Frames:    5
Frame Time:    0.008333
-2.512596    80.728928    110.626663    -10.081370    -0.642742    18.861607    -1.882592    7.155231    -6.272932    6.864232    5.829962    -2.480809    8.241443    -7.554355    -6.237399    13.064348    -10.726536    -6.362979    4.765175    -15.972028    -29.764320    -55.751007    32.553658    -50.010193    17.610058    -29.993872    -37.343182    -6.765033    -56.690769    5.122490    -11.280298    6.575253    -6.795493    0.000000    0.000000    0.000000    0.000000    0.000000    0.000000    23.344902    0.000000    -0.000000    0.000000    0.000000    0.000000    0.000000    0.000000    0.000000    -2.724770    -7.173040    11.558270    -36.299995    0.000000    0.000000    -20.069010    0.000000    0.000000    -27.836479    -18.623110    19.058559    -72.600006    0.000000    0.000000    -40.138031    0.000000    0.000000    -54.672813    -32.510792    20.853075    -110.000000    0.000000    0.000000    -60.815189    0.000000    0.000000    -7.631646    -16.583363    11.985147    52.169006    48.682625    40.502930    -47.178726    -24.946440    26.408770    -1.192922    -51.042080    19.811432    1.300529    -4.451327    7.838042    0.000000    0.000000    0.000000    0.000000    0.000000    0.000000    23.860239    0.000000    -0.000000    47.720478    0.000000    -0.000000    23.860239    0.000000    -0.000000    22.760391    0.000000    -0.000000    45.520790    0.000000    -0.000000    22.760391    0.000000    -0.000000    21.660542    0.000000    -0.000000    43.321083    0.000000    -0.000000    21.660542    0.000000    -0.000000    20.527361    0.000000    -0.000000    41.054726    0.000000    -0.000000    20.527361    0.000000    -0.000000    8.735218    -19.605886    -1.933897    -0.519560    35.730083    -2.634287    -1.231357    -17.864416    -5.737179    0.190843    0.558968    -0.402050    -14.424933    -19.923559    -13.115894    3.322676    62.973660    -11.004528    12.975923    14.812968    14.224655    0.016853    -1.931850    -0.226765    
-2.675211    80.902466    110.724319    -10.925135    -0.772617    20.716957    -1.915241    7.006227    -7.464987    7.928907    5.698856    -2.923179    8.604180    -7.671350    -6.282977    13.391673    -10.407239    -6.444766    4.575062    -15.893679    -29.972712    -55.529949    33.106941    -50.564072    17.366100    -29.925680    -36.862034    -6.364523    -56.559456    5.022413    -11.132688    6.519613    -6.650606    0.000000    0.000000    0.000000    0.000000    0.000000    0.000000    23.317781    0.000000    -0.000000    0.000000    0.000000    0.000000    0.000000    0.000000    0.000000    -2.699587    -7.077801    11.464785    -36.299995    0.000000    0.000000    -19.988987    0.000000    0.000000    -27.773121    -18.396334    18.925661    -72.600006    0.000000    0.000000    -39.977974    0.000000    0.000000    -54.530029    -32.145611    20.761877    -110.000000    0.000000    0.000000    -60.572685    0.000000    0.000000    -7.638826    -16.358801    11.743927    53.056702    48.803276    39.073948    -47.562557    -25.295586    26.716261    -0.410645    -51.188686    20.453478    1.255086    -4.417630    7.751090    0.000000    0.000000    0.000000    0.000000    0.000000    0.000000    23.751040    0.000000    -0.000000    47.502079    0.000000    -0.000000    23.751040    0.000000    -0.000000    22.676184    0.000000    -0.000000    45.352356    0.000000    -0.000000    22.676184    0.000000    -0.000000    21.601322    0.000000    -0.000000    43.202637    0.000000    -0.000000    21.601322    0.000000    -0.000000    20.493891    0.000000    -0.000000    40.987778    0.000000    -0.000000    20.493891    0.000000    -0.000000    9.245594    -20.174822    -2.826649    -0.202407    35.545349    -3.145733    -1.383705    -17.628706    -6.319184    0.193373    0.530881    -0.411805    -14.212915    -19.418699    -10.702052    3.417290    64.492516    -12.786949    11.884250    15.350224    11.221494    0.126291    -1.515505    -0.356842    
-2.837244    81.033371    110.835709    -11.730723    -0.944195    22.614935    -1.949905    6.876080    -8.670605    8.942544    5.577118    -3.366053    8.985356    -7.811140    -6.338362    13.736667    -10.089755    -6.540425    4.385811    -15.828542    -30.194557    -55.260620    33.645180    -51.166405    17.089634    -29.847380    -36.380383    -5.914744    -56.367310    4.968150    -11.002683    6.461298    -6.537284    0.000000    0.000000    0.000000    0.000000    0.000000    0.000000    23.257200    0.000000    -0.000000    0.000000    0.000000    0.000000    0.000000    0.000000    0.000000    -2.708245    -6.993742    11.371456    -36.299995    0.000000    0.000000    -19.922863    0.000000    0.000000    -27.743959    -18.190935    18.788382    -72.600006    0.000000    0.000000    -39.845737    0.000000    0.000000    -54.427521    -31.809023    20.655254    -110.000000    0.000000    0.000000    -60.372318    0.000000    0.000000    -7.634028    -16.121584    11.504543    53.948269    48.949562    37.636459    -48.040291    -25.714485    26.976942    0.259958    -51.349678    20.998720    1.213840    -4.392810    7.681046    0.000000    0.000000    0.000000    0.000000    0.000000    0.000000    23.642088    0.000000    -0.000000    47.284180    0.000000    -0.000000    23.642088    0.000000    -0.000000    22.592279    0.000000    -0.000000    45.184559    0.000000    -0.000000    22.592279    0.000000    -0.000000    21.542475    0.000000    -0.000000    43.084938    0.000000    -0.000000    21.542475    0.000000    -0.000000    20.460846    0.000000    -0.000000    40.921692    0.000000    -0.000000    20.460846    0.000000    -0.000000    9.673274    -20.811302    -3.807022    0.138835    35.502365    -3.770009    -1.510060    -17.471798    -6.765837    0.195307    0.509254    -0.419288    -13.910107    -18.764118    -8.118361    3.442633    66.129539    -14.856302    10.773853    16.170160    8.565179    0.205120    -1.042492    -0.431637    
-2.996674    81.120071    110.958290    -12.486313    -1.149216    24.546944    -1.992372    6.767374    -9.884204    9.898321    5.458993    -3.807247    9.379479    -7.973212    -6.400573    14.099671    -9.780910    -6.646815    4.195226    -15.773516    -30.426008    -54.950153    34.161888    -51.808754    16.774134    -29.758516    -35.912254    -5.401016    -56.106426    4.973060    -10.892473    6.394822    -6.466733    0.000000    0.000000    0.000000    0.000000    0.000000    0.000000    23.155325    0.000000    -0.000000    0.000000    0.000000    0.000000    0.000000    0.000000    0.000000    -2.758287    -6.922592    11.278265    -36.299995    0.000000    0.000000    -19.873190    0.000000    0.000000    -27.756226    -18.010162    18.646069    -72.600006    0.000000    0.000000    -39.746376    0.000000    0.000000    -54.372593    -31.505421    20.531336    -110.000000    0.000000    0.000000    -60.221779    0.000000    0.000000    -7.614881    -15.875039    11.267284    54.860992    49.105083    36.187607    -48.597980    -26.183722    27.196014    0.827061    -51.519184    21.465664    1.176596    -4.376857    7.627723    0.000000    0.000000    0.000000    0.000000    0.000000    0.000000    23.533506    0.000000    -0.000000    47.067017    0.000000    -0.000000    23.533506    0.000000    -0.000000    22.508066    0.000000    -0.000000    45.016136    0.000000    -0.000000    22.508066    0.000000    -0.000000    21.482626    0.000000    -0.000000    42.965240    0.000000    -0.000000    21.482626    0.000000    -0.000000    20.426107    0.000000    -0.000000    40.852215    0.000000    -0.000000    20.426107    0.000000    -0.000000    10.004111    -21.514811    -4.850769    0.514921    35.602283    -4.541523    -1.602747    -17.392765    -7.065816    0.196655    0.494073    -0.424523    -13.543334    -17.943565    -5.492655    3.130400    67.852402    -16.686819    9.698726    17.303658    6.433575    0.260692    -0.536322    -0.465890    
-3.152339    81.158905    111.089264    -13.180012    -1.375640    26.502071    -2.049670    6.678938    -11.095700    10.787415    5.341321    -4.243096    9.781512    -8.158908    -6.466151    14.484734    -9.490494    -6.760070    4.001448    -15.725691    -30.665047    -54.599369    34.653576    -52.485966    16.423628    -29.658445    -35.467567    -4.830802    -55.776161    5.033832    -10.805336    6.328744    -6.431010    0.000000    0.000000    0.000000    0.000000    0.000000    0.000000    23.006901    0.000000    -0.000000    0.000000    0.000000    0.000000    0.000000    0.000000    0.000000    -2.853200    -6.864537    11.185390    -36.299995    0.000000    0.000000    -19.839842    0.000000    0.000000    -27.811520    -17.854235    18.499342    -72.600006    0.000000    0.000000    -39.679688    0.000000    0.000000    -54.364365    -31.235226    20.391876    -110.000000    0.000000    0.000000    -60.120739    0.000000    0.000000    -7.577716    -15.623289    11.032136    55.822044    49.238239    34.717144    -49.219097    -26.671417    27.388638    1.297981    -51.692051    21.877283    1.142432    -4.369853    7.590485    0.000000    0.000000    0.000000    0.000000    0.000000    0.000000    23.423098    0.000000    -0.000000    46.846203    0.000000    -0.000000    23.423098    0.000000    -0.000000    22.421253    0.000000    -0.000000    44.842503    0.000000    -0.000000    22.421253    0.000000    -0.000000    21.419407    0.000000    -0.000000    42.838799    0.000000    -0.000000    21.419407    0.000000    -0.000000    20.387194    0.000000    -0.000000    40.774391    0.000000    -0.000000    20.387194    0.000000    -0.000000    10.225184    -22.287601    -5.923511    0.936887    35.849712    -5.483704    -1.656314    -17.390976    -7.226305    0.197397    0.485828    -0.427389    -13.130718    -16.954687    -2.929070    2.119884    69.661606    -17.665169    8.686884    18.667772    4.941596    0.300978    -0.052426    -0.478468    
